<svg xmlns="http://www.w3.org/2000/svg" viewBox="0 0 64 64"><path fill="#222" d="M54.98,7.52H9.02a1.5,1.5,0,0,0-1.5,1.5V54.98a1.5,1.5,0,0,0,1.5,1.5H54.98a1.5,1.5,0,0,0,1.5-1.5V9.02A1.5,1.5,0,0,0,54.98,7.52ZM33.01,46.35a2.285,2.285,0,0,1-.12.37,1.829,1.829,0,0,1-.18.34,2.424,2.424,0,0,1-.25.31,2.016,2.016,0,0,1-2.83,0,2.424,2.424,0,0,1-.25-.31,1.829,1.829,0,0,1-.18-.34,2.285,2.285,0,0,1-.12-.37,1.97,1.97,0,0,1,0-.79,2.654,2.654,0,0,1,.12-.37,2.313,2.313,0,0,1,.18-.35,1.81,1.81,0,0,1,.25-.3,2.071,2.071,0,0,1,2.83,0,2.484,2.484,0,0,1,.25.3,2.313,2.313,0,0,1,.18.35,2.654,2.654,0,0,1,.12.37,2.6,2.6,0,0,1,.03.4A2.561,2.561,0,0,1,33.01,46.35ZM38.4,30.76l-5.82,6.81V40.6a1.5,1.5,0,1,1-3,0V37.02a1.538,1.538,0,0,1,.36-.98l6.18-7.23a5.929,5.929,0,0,0-4.51-9.77H31.5c-.02,0-3.45-.19-5.37,2.25a1.5,1.5,0,1,1-2.36-1.85c2.77-3.53,7.26-3.43,7.89-3.4A8.924,8.924,0,0,1,38.4,30.76Z" data-name="Question Mark"/></svg>